<?xml version="1.0" standalone="no"?>
<!DOCTYPE svg PUBLIC "-//W3C//DTD SVG 20010904//EN"
 "http://www.w3.org/TR/2001/REC-SVG-20010904/DTD/svg10.dtd">
<svg version="1.0" xmlns="http://www.w3.org/2000/svg"
 width="296.000000pt" height="296.000000pt" viewBox="0 0 296.000000 296.000000"
 preserveAspectRatio="xMidYMid meet">
<metadata>
Created by potrace 1.14, written by Peter Selinger 2001-2017
</metadata>
<g transform="translate(0.000000,296.000000) scale(0.100000,-0.100000)"
fill="#000000" stroke="none">
<path d="M1295 2899 c-497 -67 -927 -392 -1125 -848 -85 -196 -115 -346 -114
-576 1 -285 55 -478 205 -737 l39 -66 52 28 c86 45 91 46 116 1 12 -21 28 -41
36 -44 7 -3 16 -26 19 -53 3 -30 12 -53 23 -61 14 -10 77 -13 266 -13 l249 0
-3 -47 -3 -48 -83 -3 -83 -3 -42 -42 c-23 -24 -53 -64 -67 -90 -22 -41 -23
-49 -10 -57 22 -14 22 -14 58 48 62 108 23 97 355 98 161 0 418 2 571 4 l279
3 24 -29 c13 -16 36 -53 51 -83 28 -56 46 -71 64 -53 7 7 -4 35 -37 94 -27 46
-55 88 -64 95 -10 8 -50 12 -102 13 -97 0 -99 1 -99 74 l0 43 122 6 c66 4 163
7 213 7 110 0 192 14 217 37 11 9 26 43 35 75 14 48 20 58 38 58 21 0 97 -28
139 -52 26 -14 40 6 117 162 34 69 65 133 70 143 21 40 69 251 80 353 14 129
6 286 -20 423 -110 566 -560 1014 -1133 1126 -99 20 -355 28 -453 14z m690
-419 c96 -14 184 -45 233 -81 46 -33 97 -117 118 -193 86 -306 94 -391 94
-940 0 -555 -12 -656 -75 -656 -20 0 -25 6 -29 33 -9 60 -17 278 -26 749 -5
257 -14 496 -21 532 -8 49 -20 77 -46 110 -37 48 -110 100 -155 111 -32 8 -34
13 -12 43 23 34 7 41 -19 9 l-22 -28 -70 18 c-100 25 -505 25 -690 0 -191 -26
-290 -46 -385 -80 -134 -46 -209 -113 -241 -213 -17 -54 -19 -526 -3 -969 6
-192 11 -351 10 -352 -1 -1 -18 0 -38 3 -35 6 -36 7 -51 78 -40 176 -61 553
-54 946 5 321 17 417 64 522 22 49 28 56 44 48 32 -18 43 -11 20 13 l-22 24
19 44 c27 61 55 84 153 125 153 64 380 105 649 117 127 6 486 -2 555 -13z
m-35 -321 c155 -39 247 -96 284 -173 21 -44 20 -51 -6 -63 -20 -9 -26 -5 -49
32 -73 114 -241 165 -549 165 -235 0 -555 -38 -700 -82 -141 -44 -187 -82
-213 -176 -10 -38 -15 -43 -37 -40 -21 3 -25 7 -22 33 5 43 36 105 71 143 64
67 263 131 496 156 368 42 576 43 725 5z m168 -211 c7 -7 12 -24 12 -38 0 -34
-17 -50 -52 -50 -37 0 -57 38 -40 75 13 27 58 35 80 13z m140 -75 c-2 -22 -9
-29 -30 -31 -24 -3 -28 0 -28 22 0 25 11 34 43 35 14 1 18 -5 15 -26z m277
-290 c10 -49 15 -130 15 -256 0 -198 -14 -295 -62 -445 l-24 -72 -1 442 c-1
244 -5 475 -8 513 l-6 70 36 -90 c19 -49 42 -122 50 -162z m-267 199 c3 -27
-1 -34 -23 -42 -35 -13 -45 -6 -45 35 0 27 4 34 23 38 35 7 42 2 45 -31z
m-1570 -12 c-2 -17 -10 -26 -25 -28 -20 -3 -23 1 -23 27 0 27 3 31 25 29 21
-2 25 -7 23 -28z m1390 -12 c2 -19 -2 -28 -18 -33 -24 -8 -50 10 -50 35 0 24
10 31 40 28 19 -2 26 -10 28 -30z m-1614 -383 c5 -315 11 -435 31 -600 l4 -40
-24 50 c-31 64 -59 156 -81 270 -21 108 -24 369 -5 460 15 74 64 241 67 229 1
-5 5 -171 8 -369z m226 315 c0 -34 -12 -50 -36 -50 -21 0 -24 5 -24 34 0 28 4
35 23 38 29 5 37 1 37 -22z m1579 -515 c6 -295 14 -542 18 -550 4 -11 -3 -15
-23 -15 -23 0 -29 5 -30 23 0 12 -6 121 -12 242 -7 121 -15 358 -18 528 l-6
307 29 0 29 0 13 -535z m-1585 130 c8 -379 15 -603 22 -671 4 -45 3 -52 -15
-57 -17 -4 -21 1 -26 47 -8 74 -14 245 -21 637 -7 336 -7 347 12 351 10 2 20
4 20 4 1 -1 4 -140 8 -311z m1128 -807 c3 -29 3 -56 1 -60 -2 -4 -163 -7 -358
-8 l-355 0 0 49 0 49 53 4 c28 2 183 5 342 7 160 1 292 5 294 7 13 12 20 -2
23 -48z"/>
<path d="M2171 2244 c-31 -40 -25 -52 9 -19 17 16 30 32 30 37 0 16 -19 7 -39
-18z"/>
<path d="M683 2223 c8 -13 91 -37 109 -31 19 7 -21 26 -72 34 -28 5 -41 4 -37
-3z"/>
<path d="M2355 393 c-11 -3 -30 -14 -43 -26 -23 -22 -65 -87 -56 -87 11 0 144
103 144 111 0 9 -12 10 -45 2z"/>
<path d="M1357 309 c-56 -3 -103 -11 -110 -18 -7 -7 -13 -52 -15 -116 -3 -87
-1 -105 11 -105 11 0 15 21 19 96 3 52 9 99 14 104 5 5 100 12 210 15 l201 6
7 -47 c3 -26 6 -75 6 -110 0 -50 3 -64 15 -64 12 0 15 16 14 93 -1 50 -4 106
-8 122 l-6 30 -130 0 c-72 0 -174 -3 -228 -6z"/>
</g>
</svg>
